<svg xmlns="http://www.w3.org/2000/svg" width="1683" height="562" viewBox="0 0 1683 562">
  <path fill="#FFFFFF" d="M136.189952,201.306163 C190.149598,209.941509 231.374767,256.712067 231.370535,313.112729 C231.370535,344.78413 231.230875,426.180732 231.230875,426.180732 C231.230875,426.180732 149.017535,426.34582 118.161082,426.34582 C55.639839,426.34582 4.95162883,375.642793 4.95162883,313.112729 C4.95162883,254.984997 46.7142787,207.088458 106.141835,200.620415 C107.572295,168.716197 130.870166,137.218349 172.628583,132.071006 C176.911498,158.315685 159.415876,192.433768 136.189952,201.306163 Z M178.100726,373.035257 C178.100726,373.035257 178.134583,330.082877 178.138816,313.121195 C178.138816,279.989404 151.285956,253.122472 118.161082,253.122472 C85.0362076,253.122472 58.1833486,279.989404 58.1833486,313.121195 C58.1833486,346.244519 85.0362076,373.111451 118.161082,373.111451 C134.319351,373.111451 178.100726,373.035257 178.100726,373.035257 Z M367.141469,216.320659 L428.003717,372.137858 L405.09097,372.137858 L388.069347,325.219145 L322.175097,325.219145 L304.717565,372.137858 L283.332616,372.137858 L344.228722,216.320659 L367.141469,216.320659 Z M328.717969,307.757967 L381.526475,307.757967 L355.558131,235.089837 L355.122222,235.089837 L328.717969,307.757967 Z M708.166431,228.431308 L708.153735,228.422842 C716.321744,236.507897 720.384588,247.818507 720.384588,262.371605 C720.384588,276.920469 716.309047,288.269177 708.166431,296.413493 C700.019582,304.562043 688.165389,308.56224 672.599618,308.414084 L625.030487,308.414084 L625.030487,372.146325 L604.301519,372.146325 L604.301519,216.329125 L672.599618,216.329125 C688.161157,216.329125 700.01535,220.367419 708.166431,228.431308 Z M691.491842,283.752552 L691.491842,283.752552 L691.504539,283.752552 C696.963985,278.808393 699.672548,271.68 699.672548,262.367372 C699.672548,253.058977 696.947057,245.964447 691.491842,241.088016 C686.036628,236.215819 677.415781,233.777603 665.633534,233.777603 L625.047416,233.777603 L625.047416,290.952907 L665.633534,290.952907 C677.415781,291.101062 686.036628,288.700944 691.491842,283.752552 Z M556.952459,228.431308 L556.939762,228.422842 C565.107771,236.507897 569.170615,247.818507 569.170615,262.371605 C569.170615,276.920469 565.099307,288.269177 556.952459,296.413493 C548.80561,304.562043 536.947184,308.56224 521.385646,308.414084 L473.816515,308.414084 L473.816515,372.146325 L453.087546,372.146325 L453.087546,216.329125 L521.385646,216.329125 C536.947184,216.329125 548.80561,220.367419 556.952459,228.431308 Z M540.27787,283.752552 L540.27787,283.752552 L540.294798,283.752552 C545.754245,278.808393 548.462808,271.68 548.462808,262.367372 C548.462808,253.058977 545.733084,245.964447 540.27787,241.088016 C534.822655,236.215819 526.206041,233.777603 514.423793,233.777603 L473.837675,233.777603 L473.837675,290.952907 L514.423793,290.952907 C526.201809,291.101062 534.822655,288.700944 540.27787,283.752552 Z M755.523956,372.137858 L755.519723,216.320659 L776.248692,216.320659 L776.248692,354.676681 L858.728656,354.676681 L858.728656,372.137858 L755.523956,372.137858 Z M886.673404,372.137858 L886.673404,216.316426 L994.245661,216.316426 L994.245661,233.777603 L907.402372,233.777603 L907.402372,283.316552 L988.350305,283.316552 L988.350305,300.777729 L907.402372,300.777729 L907.402372,354.676681 L994.897409,354.676681 L994.897409,372.137858 L886.673404,372.137858 Z M1133.02141,259.967253 L1133.01294,259.967253 L1133.01294,259.96302 L1133.14414,259.96302 L1128.65385,259.96302 C1128.35337,251.962626 1126.86366,245.232136 1124.17202,239.775783 C1121.48885,234.319429 1117.9254,229.921329 1113.4859,226.573016 C1109.05063,223.224703 1103.78163,220.782254 1097.67466,219.254137 C1091.55501,217.734485 1085.0079,216.959844 1078.03335,216.959844 C1072.49773,216.959844 1066.8563,217.514368 1061.12177,218.606486 C1055.3703,219.698603 1050.13516,221.628857 1045.40787,224.384548 C1040.68058,227.152938 1036.79549,230.822961 1033.73566,235.407313 C1030.67583,239.991666 1029.15649,245.782428 1029.15649,252.758433 C1029.15649,259.75137 1030.70969,265.351646 1033.84146,269.571959 C1036.969,273.792273 1041.03608,277.208314 1046.05962,279.828549 C1051.07892,282.444551 1056.7796,284.476397 1063.18704,285.928321 C1069.58602,287.392943 1076.13313,288.912595 1082.82836,290.512673 C1090.10339,292.413296 1096.98059,294.191162 1103.45152,295.867435 C1109.92245,297.535242 1115.55964,299.863399 1120.36311,302.84344 C1125.15811,305.827714 1128.98396,309.717852 1131.81948,314.526555 C1134.65501,319.326791 1136.06854,325.799068 1136.06854,333.947617 C1136.06854,341.368089 1134.46456,347.696443 1131.27354,352.924214 C1128.06558,358.16045 1123.85038,362.495055 1118.61101,365.911097 C1113.37586,369.318672 1107.48474,371.841548 1100.93764,373.437393 C1094.40323,375.033239 1087.77148,375.829046 1081.09318,375.829046 C1072.21418,375.829046 1064.02924,374.770792 1056.53414,372.662752 C1049.04327,370.554712 1042.57234,367.286826 1037.11713,362.850628 C1031.66191,358.405965 1027.43825,352.695631 1024.46306,345.71116 C1021.47941,338.735155 1020.05742,330.29876 1020.20554,320.401977 L1024.56887,320.401977 C1024.56887,329.714605 1025.95277,337.613406 1028.71212,344.08145 C1031.48417,350.557959 1035.36926,355.832293 1040.3928,359.904452 C1045.4121,363.980843 1051.3794,366.92702 1058.29047,368.742982 C1065.19307,370.567411 1072.79821,371.477508 1081.09741,371.477508 C1087.21284,371.477508 1093.28171,370.79176 1099.31673,369.407565 C1105.35598,368.027603 1110.7731,365.809504 1115.57234,362.753269 C1120.3758,359.697034 1124.2609,355.768798 1127.24455,350.968562 C1130.2282,346.164092 1131.72214,340.419894 1131.72214,333.727501 C1131.72214,325.879495 1130.01236,319.661199 1126.59703,315.076846 C1123.17747,310.492494 1118.80568,306.860569 1113.49859,304.16414 C1108.1915,301.484643 1102.29192,299.440097 1095.82522,298.055902 C1089.3543,296.67594 1083.1373,295.257881 1077.17,293.801724 C1070.76679,292.345568 1064.47361,290.81745 1058.29894,289.217372 C1052.10733,287.617293 1046.50822,285.394961 1041.48892,282.558842 C1036.48231,279.722724 1032.44063,275.984974 1029.38503,271.32866 C1026.32097,266.668113 1024.7974,260.483681 1024.7974,252.771132 C1024.7974,245.062815 1026.40138,238.624403 1029.6051,233.460128 C1032.79189,228.295852 1036.93938,224.185597 1042.0391,221.129361 C1047.11765,218.077359 1052.83526,215.893125 1059.16652,214.585124 C1065.48932,213.264424 1071.77827,212.621006 1078.03759,212.621006 C1085.6004,212.621006 1092.65113,213.467608 1099.19823,215.131182 C1105.74533,216.794756 1111.45448,219.495418 1116.32566,223.203538 C1121.20107,226.91589 1125.0904,231.783854 1128.0021,237.828597 C1130.91381,243.856407 1132.58973,251.238781 1133.02141,259.967253 Z M1172.09665,220.689128 L1172.08396,288.781371 L1254.99983,288.781371 L1254.99983,293.137141 L1172.08396,293.137141 L1172.08396,372.146325 L1167.72063,372.146325 L1167.72063,216.324892 L1263.73071,216.324892 L1263.73071,220.689128 L1172.09665,220.689128 Z M1286.82544,293.137141 L1286.82544,367.786321 L1386.76717,367.786321 L1386.76717,372.146325 L1282.46212,372.146325 L1282.46212,216.324892 L1385.89112,216.324892 L1385.89112,220.689128 L1286.82544,220.689128 L1286.82544,288.781371 L1380,288.781371 L1380,293.137141 L1286.82544,293.137141 Z M1520.09617,366.681505 C1520.51938,369.30174 1521.11188,371.121935 1521.82287,372.133625 L1517.01941,372.133625 C1516.29148,370.533547 1515.74554,368.387409 1515.38157,365.695213 C1515.02184,362.994551 1514.69597,360.128801 1514.40818,357.072566 C1514.11193,354.024797 1513.92995,350.930465 1513.85377,347.798035 C1513.79029,344.678305 1513.75644,341.880283 1513.75644,339.403971 C1513.75644,332.995189 1513.27821,327.293321 1512.33444,322.264502 C1511.39491,317.252615 1509.46929,313.032301 1506.55758,309.61626 C1503.64588,306.200219 1499.46454,303.58845 1494.00932,301.759788 C1488.55411,299.939593 1481.38911,299.029495 1472.51857,299.029495 L1413.82317,299.029495 L1413.82317,372.133625 L1409.45985,372.133625 L1409.45985,216.312193 L1473.16609,216.312193 C1489.32012,216.312193 1501.20394,219.575846 1508.8514,226.124316 C1516.49039,232.67702 1520.46013,242.70926 1520.74791,256.237969 C1521.0357,266.579219 1518.27635,275.231497 1512.45717,282.207502 C1506.63799,289.20044 1498.27108,293.928715 1487.36065,296.400794 L1487.36065,296.836795 C1493.90775,297.708795 1499.2233,299.27501 1503.29884,301.526973 C1507.36592,303.783168 1510.48923,306.733578 1512.68148,310.365503 C1514.85256,314.005894 1516.30841,318.298169 1517.0448,323.242328 C1517.76426,328.19072 1518.12823,333.790996 1518.12823,340.047389 C1518.12823,342.384012 1518.2044,345.143936 1518.35253,348.339861 C1518.49219,351.552717 1518.70803,354.752875 1519.00428,357.953033 C1519.29629,361.15319 1519.65602,364.06127 1520.09617,366.681505 Z M1472.10382,294.665259 L1472.10805,294.65256 C1477.77911,294.65256 1483.28087,293.924482 1488.65568,292.464092 C1494.04318,291.016402 1498.81279,288.684012 1502.94758,285.483854 C1507.0866,282.283697 1510.37073,278.249635 1512.76612,273.373205 C1515.16573,268.509473 1516.37189,262.655216 1516.37189,255.814668 C1516.22377,244.762272 1512.87615,236.139625 1506.32905,229.955193 C1499.79041,223.774994 1489.10428,220.689128 1474.25798,220.689128 L1413.8274,220.689128 L1413.8274,294.665259 L1472.10382,294.665259 Z M1607.15529,216.320659 L1607.12567,216.320659 L1668.69891,372.142091 L1663.90391,372.142091 L1643.37809,320.854909 L1563.95795,320.854909 L1543.22898,372.142091 L1538.20121,372.142091 L1601.48424,216.320659 L1607.15529,216.320659 Z M1565.6762,316.490673 L1565.69736,316.490673 L1641.61752,316.490673 L1604.51868,220.684895 L1604.07854,220.684895 L1565.6762,316.490673 Z" transform="translate(5 4)"/>
</svg>
